<svg width="721" height="192" viewBox="0 0 721 192" fill="none" xmlns="http://www.w3.org/2000/svg">
<g filter="url(#filter0_d_1_2)">
<path d="M54.68 152.07C52.7475 146.619 52.2887 140.755 53.35 135.07C54.49 129.07 57.83 124.28 60.35 118.82C61.5 116.35 62.82 113.59 64.8 111.67C65.7414 110.725 66.9502 110.091 68.2631 109.854C69.5761 109.617 70.9301 109.789 72.1424 110.346C73.3546 110.903 74.3668 111.819 75.0423 112.969C75.7179 114.12 76.0242 115.45 75.92 116.78C75.48 122.28 70.92 127.52 68.6 132.39C65.19 139.68 65.68 148.73 71.79 154.49C74.4629 156.897 77.7893 158.458 81.3489 158.976C84.9086 159.494 88.5419 158.946 91.79 157.4C97.57 154.4 100.43 148.31 103.28 142.79C106.46 136.62 109.28 130.27 112.51 124.14C115.1 119.24 117.66 114.51 116.96 108.79C116.655 106.268 115.826 103.838 114.526 101.656C113.226 99.4738 111.483 97.5881 109.41 96.12C106.22 93.91 102.93 91.64 104 87.12C104.263 85.9952 104.822 84.9611 105.618 84.1243C106.414 83.2875 107.42 82.6785 108.53 82.36C109.946 82.0593 111.417 82.1422 112.79 82.6C119.4 84.6 125.03 91.4 127.79 97.44C131.79 106.09 131.23 115.38 127.62 124.05C123.79 133.26 118.71 142.05 114.17 150.94C110.34 158.42 106.12 165.11 98.46 169.11C91.3649 172.849 83.1243 173.788 75.37 171.74C70.5903 170.374 66.2121 167.871 62.6093 164.446C59.0065 161.021 56.286 156.775 54.68 152.07Z" fill="#F29727"/>
<path d="M155.24 49.35C156.394 52.8717 156.935 56.5653 156.84 60.27C156.6 68.62 152.16 75.69 148.68 83.04C147.31 85.93 145.93 89.16 143.07 90.58C142.109 91.0602 141.044 91.2943 139.97 91.2613C138.896 91.2284 137.847 90.9294 136.918 90.3911C135.988 89.8529 135.206 89.0923 134.643 88.1775C134.08 87.2628 133.752 86.2225 133.69 85.15C133.679 83.4497 134.07 81.7709 134.83 80.25C138.13 72.71 143.83 66.13 143.14 57.37C142.793 54.0056 141.486 50.812 139.374 48.1701C137.262 45.5282 134.435 43.5495 131.23 42.47C128.586 41.666 125.796 41.466 123.065 41.8849C120.333 42.3037 117.731 43.3307 115.45 44.89C110.34 48.36 108.19 54.35 105.5 59.63C102.6 65.32 99.87 71.1 96.89 76.74C95.4652 79.2389 94.2413 81.8471 93.23 84.54C92.479 86.8374 92.2043 89.2637 92.4226 91.6708C92.641 94.0779 93.3478 96.4153 94.5 98.54C95.6184 100.587 97.1509 102.378 99 103.8C101 105.33 103.37 106.43 104.73 108.59C105.356 109.61 105.696 110.78 105.713 111.976C105.731 113.173 105.426 114.352 104.83 115.39C102.29 119.67 96.96 118.93 93.33 116.63C80.94 108.79 76.02 93.05 80.76 79.43C82.4452 74.9582 84.4504 70.6136 86.76 66.43C93.39 53.68 98.12 37.84 112.02 31.11C118.408 28.0794 125.627 27.2738 132.526 28.8214C139.425 30.3691 145.608 34.181 150.09 39.65C152.374 42.5489 154.118 45.8344 155.24 49.35Z" fill="#1C1850"/>
<path d="M185.86 151.17V68.43H199.46V151.17H185.86ZM193.08 116.8V103.8H240.15V116.8H193.08ZM232 151.17V68.43H245.6V151.17H232Z" fill="#1C1850"/>
<path d="M320.6 151.17L301.16 116C303.926 115.208 306.503 113.865 308.737 112.052C310.971 110.239 312.815 107.993 314.16 105.45C316.219 101.503 317.251 97.1009 317.16 92.65C317.262 88.203 316.255 83.8005 314.23 79.84C312.361 76.2916 309.516 73.3524 306.03 71.37C302.262 69.2959 298.01 68.2606 293.71 68.37H259.13V151.17H272.74V81.4H293.28C294.605 81.3561 295.923 81.6121 297.135 82.1489C298.347 82.6857 299.422 83.4894 300.28 84.5C302.126 86.8112 303.068 89.7152 302.93 92.67C303.041 95.6413 302.091 98.5552 300.25 100.89C299.398 101.909 298.325 102.719 297.111 103.258C295.898 103.797 294.577 104.051 293.25 104H286.1V117L304.26 151.14L320.6 151.17Z" fill="#1C1850"/>
<path d="M360.49 152C351.957 152 345.563 149.867 341.31 145.6C337.057 141.333 334.933 134.91 334.94 126.33V116.6C334.94 108.1 337.063 101.747 341.31 97.54C345.557 93.3334 351.95 91.2267 360.49 91.22C364.812 91.1188 369.107 91.9227 373.1 93.58C376.606 95.1229 379.64 97.5697 381.89 100.67L375.8 106C373.959 103.713 371.638 101.859 369 100.57C366.39 99.3536 363.539 98.7417 360.66 98.78C354.82 98.78 350.44 100.25 347.52 103.19C344.6 106.13 343.14 110.577 343.14 116.53V126.26C343.14 132.3 344.6 136.817 347.52 139.81C350.44 142.803 354.82 144.303 360.66 144.31C363.68 144.35 366.675 143.768 369.46 142.6C372.178 141.395 374.611 139.63 376.6 137.42L381.89 142.66C379.638 145.737 376.603 148.154 373.1 149.66C369.1 151.291 364.809 152.088 360.49 152Z" fill="#F29727"/>
<path d="M411.52 152C403.78 152 397.78 149.753 393.52 145.26C389.26 140.767 387.133 134.433 387.14 126.26V116.64C387.14 108.56 389.267 102.3 393.52 97.86C397.773 93.42 403.773 91.2 411.52 91.2C419.26 91.2 425.26 93.42 429.52 97.86C433.78 102.3 435.907 108.56 435.9 116.64V126.43C435.9 134.55 433.773 140.837 429.52 145.29C425.267 149.743 419.267 151.98 411.52 152ZM411.46 144.38C416.62 144.38 420.62 142.813 423.46 139.68C426.3 136.547 427.713 132.137 427.7 126.45V116.66C427.7 111.013 426.287 106.63 423.46 103.51C420.633 100.39 416.633 98.8367 411.46 98.85C406.34 98.85 402.377 100.403 399.57 103.51C396.763 106.617 395.36 111 395.36 116.66V126.45C395.36 132.143 396.763 136.553 399.57 139.68C402.377 142.807 406.34 144.363 411.46 144.35V144.38Z" fill="#F29727"/>
<path d="M446.55 151.12V92H454.75V151.08L446.55 151.12ZM485.82 151.12V115.32C485.82 110.08 484.45 106.03 481.7 103.14C478.95 100.25 475.07 98.82 470.06 98.82C465.2 98.82 461.433 100.1 458.76 102.66C456.087 105.22 454.753 108.853 454.76 113.56L453.56 102.17C455.415 98.451 458.45 95.4513 462.19 93.64C465.861 91.9808 469.851 91.1446 473.88 91.19C480.287 91.19 485.247 93.2867 488.76 97.48C492.273 101.673 494.02 107.6 494 115.26V151.12H485.82Z" fill="#F29727"/>
<path d="M505.83 151.12V92H514V151.08L505.83 151.12ZM545.1 151.12V115.32C545.1 110.08 543.73 106.03 540.98 103.14C538.23 100.25 534.35 98.82 529.34 98.82C524.33 98.82 520.72 100.1 518.04 102.66C515.36 105.22 514.04 108.85 514.04 113.56L512.84 102.17C514.695 98.451 517.73 95.4513 521.47 93.64C525.141 91.9808 529.131 91.1446 533.16 91.19C539.567 91.19 544.527 93.2867 548.04 97.48C551.553 101.673 553.31 107.6 553.31 115.26V151.12H545.1Z" fill="#F29727"/>
<path d="M581.43 117.77V125.16H611.67V118.39C611.67 109.723 609.63 103.027 605.55 98.3C601.47 93.5733 595.713 91.2033 588.28 91.19C580.38 91.19 574.26 93.6 569.92 98.42C565.58 103.24 563.407 110.05 563.4 118.85V125.5C563.4 133.927 565.66 140.443 570.18 145.05C574.7 149.657 581.073 151.973 589.3 152C593.085 151.978 596.826 151.193 600.3 149.69C603.946 148.159 607.268 145.949 610.09 143.18L604.51 137.83C602.462 139.885 600.038 141.528 597.37 142.67C594.809 143.778 592.05 144.357 589.26 144.37C583.453 144.37 578.957 142.75 575.77 139.51C572.93 136.61 571.357 132.657 571.05 127.65C571.05 127.21 571 126.77 571 126.31C571 126.13 571 125.94 571 125.76V125.19V117.68C571 117.55 571 117.42 571 117.3C571.14 111.58 572.633 107.117 575.48 103.91C578.473 100.53 582.723 98.84 588.23 98.84C593.23 98.84 597.107 100.443 599.86 103.65C602.613 106.857 603.993 111.373 604 117.2V117.77H581.43Z" fill="#F29727"/>
<path d="M645.62 152C637.08 152 630.687 149.867 626.44 145.6C622.193 141.333 620.07 134.91 620.07 126.33V116.6C620.07 108.1 622.193 101.747 626.44 97.54C630.687 93.3334 637.08 91.2267 645.62 91.22C649.942 91.1188 654.237 91.9227 658.23 93.58C661.733 95.1286 664.765 97.5743 667.02 100.67L660.93 106.07C659.089 103.783 656.768 101.929 654.13 100.64C651.519 99.4259 648.669 98.8141 645.79 98.85C639.95 98.85 635.567 100.32 632.64 103.26C629.713 106.2 628.253 110.647 628.26 116.6V126.33C628.26 132.37 629.72 136.887 632.64 139.88C635.56 142.873 639.943 144.373 645.79 144.38C648.806 144.421 651.799 143.839 654.58 142.67C657.302 141.468 659.739 139.702 661.73 137.49L667 142.7C664.743 145.772 661.709 148.188 658.21 149.7C654.213 151.315 649.929 152.098 645.62 152Z" fill="#F29727"/>
<path d="M669.44 99.1V92H696.08V99.06L669.44 99.1ZM689.36 151.4C684.5 151.4 680.99 150.06 678.8 147.4C676.61 144.74 675.53 140.84 675.53 135.79V74.86H683.73V135.86C683.604 137.942 684.205 140.002 685.43 141.69C686.059 142.402 686.844 142.96 687.723 143.321C688.602 143.681 689.552 143.835 690.5 143.77H696.08V151.39L689.36 151.4Z" fill="#F29727"/>
<path d="M571.09 127.62H571V126.28C571 126.74 571.06 127.18 571.09 127.62Z" fill="#F29727"/>
</g>
<defs>
<filter id="filter0_d_1_2" x="-4" y="0" width="729" height="200" filterUnits="userSpaceOnUse" color-interpolation-filters="sRGB">
<feFlood flood-opacity="0" result="BackgroundImageFix"/>
<feColorMatrix in="SourceAlpha" type="matrix" values="0 0 0 0 0 0 0 0 0 0 0 0 0 0 0 0 0 0 127 0" result="hardAlpha"/>
<feOffset dy="4"/>
<feGaussianBlur stdDeviation="2"/>
<feComposite in2="hardAlpha" operator="out"/>
<feColorMatrix type="matrix" values="0 0 0 0 0 0 0 0 0 0 0 0 0 0 0 0 0 0 0.25 0"/>
<feBlend mode="normal" in2="BackgroundImageFix" result="effect1_dropShadow_1_2"/>
<feBlend mode="normal" in="SourceGraphic" in2="effect1_dropShadow_1_2" result="shape"/>
</filter>
</defs>
</svg>
